<svg xmlns="http://www.w3.org/2000/svg" width="16" height="16" viewBox="0 0 24 24" fill="none"><path d="M9.78901 3.5625H14.9871C15.2724 3.5625 15.5036 3.79378 15.5036 4.07908C15.5036 4.15717 15.4859 4.23424 15.4519 4.30449L8.3811 18.8846C7.92049 19.8344 6.95771 20.4375 5.90213 20.4375H0.704081C0.418781 20.4375 0.1875 20.2062 0.1875 19.9209C0.1875 19.8428 0.205202 19.7658 0.239275 19.6955L7.31005 5.1154C7.77065 4.16562 8.73344 3.5625 9.78901 3.5625Z" fill="url(#paint0_linear_14018_4366_8phnr5)"/><path fill-rule="evenodd" clip-rule="evenodd" d="M15.5037 4.07908C15.5037 3.79378 15.2725 3.5625 14.9872 3.5625H9.78911C9.24047 3.5625 8.7169 3.72543 8.27588 4.01527L11.9464 11.5331L15.452 4.30449C15.486 4.23424 15.5037 4.15717 15.5037 4.07908Z" fill="url(#paint1_linear_14018_4366_8phnr5)"/><path fill-rule="evenodd" clip-rule="evenodd" d="M20.4493 13.0841L23.6557 19.6955C23.7802 19.9522 23.673 20.2612 23.4163 20.3857C23.3461 20.4198 23.269 20.4375 23.1909 20.4375H17.9929C16.9373 20.4375 15.9745 19.8344 15.5139 18.8846L11.9478 11.5312H17.9704C19.0259 11.5312 19.9887 12.1344 20.4493 13.0841Z" fill="url(#paint2_linear_14018_4366_8phnr5)"/><defs><linearGradient id="paint0_linear_14018_4366_8phnr5" x1="8.31692" y1="2.35714" x2="-2.51819" y2="20.6447" gradientUnits="userSpaceOnUse"><stop stop-color="#391EF0"/><stop offset="1" stop-color="#5DABFF"/></linearGradient><linearGradient id="paint1_linear_14018_4366_8phnr5" x1="16.3869" y1="3.5625" x2="8" y2="3.5625" gradientUnits="userSpaceOnUse"><stop stop-color="#37B2FC"/><stop offset="1" stop-color="#2052FC"/></linearGradient><linearGradient id="paint2_linear_14018_4366_8phnr5" x1="21.6118" y1="19.2321" x2="14.3417" y2="9.75024" gradientUnits="userSpaceOnUse"><stop stop-color="#FFAA8F"/><stop offset="1" stop-color="#EE00FF"/></linearGradient></defs></svg>